<svg version="1.2" xmlns="http://www.w3.org/2000/svg" viewBox="0 0 864 576" width="1920" height="1280">
	<title>18106012-ai</title>
	<defs>
		<clipPath clipPathUnits="userSpaceOnUse" id="cp1">
			<path d="m864 0v576h-864v-576z"/>
		</clipPath>
		<linearGradient id="g1" x2="1" gradientUnits="userSpaceOnUse" gradientTransform="matrix(0,-15.946,58.506,0,-29.375,15.449)">
			<stop offset="0" stop-color="#fafafa"/>
			<stop offset="1" stop-color="#cfcfcf"/>
		</linearGradient>
		<linearGradient id="g2" x2="1" gradientUnits="userSpaceOnUse" gradientTransform="matrix(0,-17.77,81.06,0,-15.23,24.894)">
			<stop offset="0" stop-color="#fafafa"/>
			<stop offset="1" stop-color="#cfcfcf"/>
		</linearGradient>
		<linearGradient id="g3" x2="1" gradientUnits="userSpaceOnUse" gradientTransform="matrix(0,-15.946,87.646,0,42.054,15.449)">
			<stop offset="0" stop-color="#fafafa"/>
			<stop offset="1" stop-color="#cfcfcf"/>
		</linearGradient>
		<linearGradient id="g4" x2="1" gradientUnits="userSpaceOnUse" gradientTransform="matrix(0,-17.77,92.508,0,72.491,24.894)">
			<stop offset="0" stop-color="#fafafa"/>
			<stop offset="1" stop-color="#cfcfcf"/>
		</linearGradient>
		<linearGradient id="g5" x2="1" gradientUnits="userSpaceOnUse" gradientTransform="matrix(0,-15.946,87.646,0,130.401,15.449)">
			<stop offset="0" stop-color="#fafafa"/>
			<stop offset="1" stop-color="#cfcfcf"/>
		</linearGradient>
		<linearGradient id="g6" x2="1" gradientUnits="userSpaceOnUse" gradientTransform="matrix(0,-17.77,92.508,0,165.739,24.894)">
			<stop offset="0" stop-color="#fafafa"/>
			<stop offset="1" stop-color="#cfcfcf"/>
		</linearGradient>
		<linearGradient id="g7" x2="1" gradientUnits="userSpaceOnUse" gradientTransform="matrix(0,-15.946,87.645,0,218.747,15.449)">
			<stop offset="0" stop-color="#fafafa"/>
			<stop offset="1" stop-color="#cfcfcf"/>
		</linearGradient>
		<linearGradient id="g8" x2="1" gradientUnits="userSpaceOnUse" gradientTransform="matrix(0,-17.77,92.508,0,258.986,24.894)">
			<stop offset="0" stop-color="#fafafa"/>
			<stop offset="1" stop-color="#cfcfcf"/>
		</linearGradient>
		<linearGradient id="g9" x2="1" gradientUnits="userSpaceOnUse" gradientTransform="matrix(0,-15.946,87.646,0,307.093,15.449)">
			<stop offset="0" stop-color="#fafafa"/>
			<stop offset="1" stop-color="#cfcfcf"/>
		</linearGradient>
		<linearGradient id="g10" x2="1" gradientUnits="userSpaceOnUse" gradientTransform="matrix(0,-17.77,92.508,0,352.234,24.894)">
			<stop offset="0" stop-color="#fafafa"/>
			<stop offset="1" stop-color="#cfcfcf"/>
		</linearGradient>
		<linearGradient id="g11" x2="1" gradientUnits="userSpaceOnUse" gradientTransform="matrix(0,-15.946,87.646,0,395.44,15.449)">
			<stop offset="0" stop-color="#fafafa"/>
			<stop offset="1" stop-color="#cfcfcf"/>
		</linearGradient>
		<linearGradient id="g12" x2="1" gradientUnits="userSpaceOnUse" gradientTransform="matrix(0,-17.77,92.508,0,445.481,24.894)">
			<stop offset="0" stop-color="#fafafa"/>
			<stop offset="1" stop-color="#cfcfcf"/>
		</linearGradient>
		<linearGradient id="g13" x2="1" gradientUnits="userSpaceOnUse" gradientTransform="matrix(0,-15.946,87.646,0,483.786,15.449)">
			<stop offset="0" stop-color="#fafafa"/>
			<stop offset="1" stop-color="#cfcfcf"/>
		</linearGradient>
		<linearGradient id="g14" x2="1" gradientUnits="userSpaceOnUse" gradientTransform="matrix(0,-17.77,92.508,0,538.729,24.894)">
			<stop offset="0" stop-color="#fafafa"/>
			<stop offset="1" stop-color="#cfcfcf"/>
		</linearGradient>
		<linearGradient id="g15" x2="1" gradientUnits="userSpaceOnUse" gradientTransform="matrix(0,-15.946,87.645,0,572.133,15.449)">
			<stop offset="0" stop-color="#fafafa"/>
			<stop offset="1" stop-color="#cfcfcf"/>
		</linearGradient>
		<linearGradient id="g16" x2="1" gradientUnits="userSpaceOnUse" gradientTransform="matrix(0,-17.77,92.508,0,631.976,24.894)">
			<stop offset="0" stop-color="#fafafa"/>
			<stop offset="1" stop-color="#cfcfcf"/>
		</linearGradient>
		<linearGradient id="g17" x2="1" gradientUnits="userSpaceOnUse" gradientTransform="matrix(0,-15.946,87.646,0,660.479,15.449)">
			<stop offset="0" stop-color="#fafafa"/>
			<stop offset="1" stop-color="#cfcfcf"/>
		</linearGradient>
		<linearGradient id="g18" x2="1" gradientUnits="userSpaceOnUse" gradientTransform="matrix(0,-17.77,92.508,0,725.224,24.894)">
			<stop offset="0" stop-color="#fafafa"/>
			<stop offset="1" stop-color="#cfcfcf"/>
		</linearGradient>
		<linearGradient id="g19" x2="1" gradientUnits="userSpaceOnUse" gradientTransform="matrix(0,-15.946,87.646,0,748.825,15.449)">
			<stop offset="0" stop-color="#fafafa"/>
			<stop offset="1" stop-color="#cfcfcf"/>
		</linearGradient>
		<linearGradient id="g20" x2="1" gradientUnits="userSpaceOnUse" gradientTransform="matrix(0,-17.77,92.508,0,818.471,24.894)">
			<stop offset="0" stop-color="#fafafa"/>
			<stop offset="1" stop-color="#cfcfcf"/>
		</linearGradient>
		<linearGradient id="g21" x2="1" gradientUnits="userSpaceOnUse" gradientTransform="matrix(0,-15.946,87.646,0,837.172,15.449)">
			<stop offset="0" stop-color="#fafafa"/>
			<stop offset="1" stop-color="#cfcfcf"/>
		</linearGradient>
		<linearGradient id="g22" x2="1" gradientUnits="userSpaceOnUse" gradientTransform="matrix(0,-17.77,92.508,0,911.719,24.894)">
			<stop offset="0" stop-color="#fafafa"/>
			<stop offset="1" stop-color="#cfcfcf"/>
		</linearGradient>
		<linearGradient id="g23" x2="1" gradientUnits="userSpaceOnUse" gradientTransform="matrix(0,-15.946,87.645,0,925.518,15.449)">
			<stop offset="0" stop-color="#fafafa"/>
			<stop offset="1" stop-color="#cfcfcf"/>
		</linearGradient>
		<linearGradient id="g24" x2="1" gradientUnits="userSpaceOnUse" gradientTransform="matrix(0,-17.77,45.307,0,972.722,24.894)">
			<stop offset="0" stop-color="#fafafa"/>
			<stop offset="1" stop-color="#cfcfcf"/>
		</linearGradient>
		<linearGradient id="g25" x2="1" gradientUnits="userSpaceOnUse" gradientTransform="matrix(0,-19.926,39.605,0,-48.689,35.517)">
			<stop offset="0" stop-color="#fafafa"/>
			<stop offset="1" stop-color="#cfcfcf"/>
		</linearGradient>
		<linearGradient id="g26" x2="1" gradientUnits="userSpaceOnUse" gradientTransform="matrix(0,-22.5,56.89,0,-35.61,47.553)">
			<stop offset="0" stop-color="#fafafa"/>
			<stop offset="1" stop-color="#cfcfcf"/>
		</linearGradient>
		<linearGradient id="g27" x2="1" gradientUnits="userSpaceOnUse" gradientTransform="matrix(0,-19.926,97.941,0,7.745,35.517)">
			<stop offset="0" stop-color="#fafafa"/>
			<stop offset="1" stop-color="#cfcfcf"/>
		</linearGradient>
		<linearGradient id="g28" x2="1" gradientUnits="userSpaceOnUse" gradientTransform="matrix(0,-22.5,104.053,0,39.757,47.553)">
			<stop offset="0" stop-color="#fafafa"/>
			<stop offset="1" stop-color="#cfcfcf"/>
		</linearGradient>
		<linearGradient id="g29" x2="1" gradientUnits="userSpaceOnUse" gradientTransform="matrix(0,-19.926,97.941,0,106.469,35.517)">
			<stop offset="0" stop-color="#fafafa"/>
			<stop offset="1" stop-color="#cfcfcf"/>
		</linearGradient>
		<linearGradient id="g30" x2="1" gradientUnits="userSpaceOnUse" gradientTransform="matrix(0,-22.5,104.053,0,144.642,47.553)">
			<stop offset="0" stop-color="#fafafa"/>
			<stop offset="1" stop-color="#cfcfcf"/>
		</linearGradient>
		<linearGradient id="g31" x2="1" gradientUnits="userSpaceOnUse" gradientTransform="matrix(0,-19.926,97.941,0,205.194,35.517)">
			<stop offset="0" stop-color="#fafafa"/>
			<stop offset="1" stop-color="#cfcfcf"/>
		</linearGradient>
		<linearGradient id="g32" x2="1" gradientUnits="userSpaceOnUse" gradientTransform="matrix(0,-22.5,104.053,0,249.526,47.553)">
			<stop offset="0" stop-color="#fafafa"/>
			<stop offset="1" stop-color="#cfcfcf"/>
		</linearGradient>
		<linearGradient id="g33" x2="1" gradientUnits="userSpaceOnUse" gradientTransform="matrix(0,-19.926,97.941,0,303.918,35.517)">
			<stop offset="0" stop-color="#fafafa"/>
			<stop offset="1" stop-color="#cfcfcf"/>
		</linearGradient>
		<linearGradient id="g34" x2="1" gradientUnits="userSpaceOnUse" gradientTransform="matrix(0,-22.5,104.053,0,354.411,47.553)">
			<stop offset="0" stop-color="#fafafa"/>
			<stop offset="1" stop-color="#cfcfcf"/>
		</linearGradient>
		<linearGradient id="g35" x2="1" gradientUnits="userSpaceOnUse" gradientTransform="matrix(0,-19.926,97.941,0,402.642,35.517)">
			<stop offset="0" stop-color="#fafafa"/>
			<stop offset="1" stop-color="#cfcfcf"/>
		</linearGradient>
		<linearGradient id="g36" x2="1" gradientUnits="userSpaceOnUse" gradientTransform="matrix(0,-22.5,104.053,0,459.296,47.553)">
			<stop offset="0" stop-color="#fafafa"/>
			<stop offset="1" stop-color="#cfcfcf"/>
		</linearGradient>
		<linearGradient id="g37" x2="1" gradientUnits="userSpaceOnUse" gradientTransform="matrix(0,-19.926,97.941,0,501.367,35.517)">
			<stop offset="0" stop-color="#fafafa"/>
			<stop offset="1" stop-color="#cfcfcf"/>
		</linearGradient>
		<linearGradient id="g38" x2="1" gradientUnits="userSpaceOnUse" gradientTransform="matrix(0,-22.5,104.053,0,564.181,47.553)">
			<stop offset="0" stop-color="#fafafa"/>
			<stop offset="1" stop-color="#cfcfcf"/>
		</linearGradient>
		<linearGradient id="g39" x2="1" gradientUnits="userSpaceOnUse" gradientTransform="matrix(0,-19.926,97.941,0,600.091,35.517)">
			<stop offset="0" stop-color="#fafafa"/>
			<stop offset="1" stop-color="#cfcfcf"/>
		</linearGradient>
		<linearGradient id="g40" x2="1" gradientUnits="userSpaceOnUse" gradientTransform="matrix(0,-22.5,104.053,0,669.066,47.553)">
			<stop offset="0" stop-color="#fafafa"/>
			<stop offset="1" stop-color="#cfcfcf"/>
		</linearGradient>
		<linearGradient id="g41" x2="1" gradientUnits="userSpaceOnUse" gradientTransform="matrix(0,-19.926,97.941,0,698.816,35.517)">
			<stop offset="0" stop-color="#fafafa"/>
			<stop offset="1" stop-color="#cfcfcf"/>
		</linearGradient>
		<linearGradient id="g42" x2="1" gradientUnits="userSpaceOnUse" gradientTransform="matrix(0,-22.5,104.053,0,773.951,47.553)">
			<stop offset="0" stop-color="#fafafa"/>
			<stop offset="1" stop-color="#cfcfcf"/>
		</linearGradient>
		<linearGradient id="g43" x2="1" gradientUnits="userSpaceOnUse" gradientTransform="matrix(0,-19.926,97.941,0,797.54,35.517)">
			<stop offset="0" stop-color="#fafafa"/>
			<stop offset="1" stop-color="#cfcfcf"/>
		</linearGradient>
		<linearGradient id="g44" x2="1" gradientUnits="userSpaceOnUse" gradientTransform="matrix(0,-22.5,104.053,0,878.835,47.553)">
			<stop offset="0" stop-color="#fafafa"/>
			<stop offset="1" stop-color="#cfcfcf"/>
		</linearGradient>
		<linearGradient id="g45" x2="1" gradientUnits="userSpaceOnUse" gradientTransform="matrix(0,-19.926,97.941,0,896.264,35.517)">
			<stop offset="0" stop-color="#fafafa"/>
			<stop offset="1" stop-color="#cfcfcf"/>
		</linearGradient>
		<linearGradient id="g46" x2="1" gradientUnits="userSpaceOnUse" gradientTransform="matrix(0,-22.5,71.562,0,959.076,47.553)">
			<stop offset="0" stop-color="#fafafa"/>
			<stop offset="1" stop-color="#cfcfcf"/>
		</linearGradient>
		<linearGradient id="g47" x2="1" gradientUnits="userSpaceOnUse" gradientTransform="matrix(0,-19.926,58.552,0,966.377,35.517)">
			<stop offset="0" stop-color="#fafafa"/>
			<stop offset="1" stop-color="#cfcfcf"/>
		</linearGradient>
		<linearGradient id="g48" x2="1" gradientUnits="userSpaceOnUse" gradientTransform="matrix(0,-25.609,78.95,0,-19.612,61.305)">
			<stop offset="0" stop-color="#fafafa"/>
			<stop offset="1" stop-color="#cfcfcf"/>
		</linearGradient>
		<linearGradient id="g49" x2="1" gradientUnits="userSpaceOnUse" gradientTransform="matrix(0,-29.41,114.208,0,-0.377,77.168)">
			<stop offset="0" stop-color="#fafafa"/>
			<stop offset="1" stop-color="#cfcfcf"/>
		</linearGradient>
		<linearGradient id="g50" x2="1" gradientUnits="userSpaceOnUse" gradientTransform="matrix(0,-25.609,110.978,0,75.967,61.306)">
			<stop offset="0" stop-color="#fafafa"/>
			<stop offset="1" stop-color="#cfcfcf"/>
		</linearGradient>
		<linearGradient id="g51" x2="1" gradientUnits="userSpaceOnUse" gradientTransform="matrix(0,-29.41,118.89,0,117.254,77.168)">
			<stop offset="0" stop-color="#fafafa"/>
			<stop offset="1" stop-color="#cfcfcf"/>
		</linearGradient>
		<linearGradient id="g52" x2="1" gradientUnits="userSpaceOnUse" gradientTransform="matrix(0,-25.609,110.978,0,187.832,61.306)">
			<stop offset="0" stop-color="#fafafa"/>
			<stop offset="1" stop-color="#cfcfcf"/>
		</linearGradient>
		<linearGradient id="g53" x2="1" gradientUnits="userSpaceOnUse" gradientTransform="matrix(0,-29.41,118.89,0,237.095,77.168)">
			<stop offset="0" stop-color="#fafafa"/>
			<stop offset="1" stop-color="#cfcfcf"/>
		</linearGradient>
		<linearGradient id="g54" x2="1" gradientUnits="userSpaceOnUse" gradientTransform="matrix(0,-25.609,110.978,0,299.698,61.306)">
			<stop offset="0" stop-color="#fafafa"/>
			<stop offset="1" stop-color="#cfcfcf"/>
		</linearGradient>
		<linearGradient id="g55" x2="1" gradientUnits="userSpaceOnUse" gradientTransform="matrix(0,-29.41,118.89,0,356.936,77.168)">
			<stop offset="0" stop-color="#fafafa"/>
			<stop offset="1" stop-color="#cfcfcf"/>
		</linearGradient>
		<linearGradient id="g56" x2="1" gradientUnits="userSpaceOnUse" gradientTransform="matrix(0,-25.609,110.978,0,411.563,61.306)">
			<stop offset="0" stop-color="#fafafa"/>
			<stop offset="1" stop-color="#cfcfcf"/>
		</linearGradient>
		<linearGradient id="g57" x2="1" gradientUnits="userSpaceOnUse" gradientTransform="matrix(0,-29.41,118.89,0,476.777,77.168)">
			<stop offset="0" stop-color="#fafafa"/>
			<stop offset="1" stop-color="#cfcfcf"/>
		</linearGradient>
		<linearGradient id="g58" x2="1" gradientUnits="userSpaceOnUse" gradientTransform="matrix(0,-25.609,110.978,0,523.428,61.306)">
			<stop offset="0" stop-color="#fafafa"/>
			<stop offset="1" stop-color="#cfcfcf"/>
		</linearGradient>
		<linearGradient id="g59" x2="1" gradientUnits="userSpaceOnUse" gradientTransform="matrix(0,-29.41,118.89,0,596.618,77.168)">
			<stop offset="0" stop-color="#fafafa"/>
			<stop offset="1" stop-color="#cfcfcf"/>
		</linearGradient>
		<linearGradient id="g60" x2="1" gradientUnits="userSpaceOnUse" gradientTransform="matrix(0,-25.609,110.978,0,635.293,61.306)">
			<stop offset="0" stop-color="#fafafa"/>
			<stop offset="1" stop-color="#cfcfcf"/>
		</linearGradient>
		<linearGradient id="g61" x2="1" gradientUnits="userSpaceOnUse" gradientTransform="matrix(0,-29.41,118.89,0,716.459,77.168)">
			<stop offset="0" stop-color="#fafafa"/>
			<stop offset="1" stop-color="#cfcfcf"/>
		</linearGradient>
		<linearGradient id="g62" x2="1" gradientUnits="userSpaceOnUse" gradientTransform="matrix(0,-25.609,110.978,0,747.159,61.306)">
			<stop offset="0" stop-color="#fafafa"/>
			<stop offset="1" stop-color="#cfcfcf"/>
		</linearGradient>
		<linearGradient id="g63" x2="1" gradientUnits="userSpaceOnUse" gradientTransform="matrix(0,-29.41,118.89,0,836.3,77.168)">
			<stop offset="0" stop-color="#fafafa"/>
			<stop offset="1" stop-color="#cfcfcf"/>
		</linearGradient>
		<linearGradient id="g64" x2="1" gradientUnits="userSpaceOnUse" gradientTransform="matrix(0,-25.609,110.978,0,859.024,61.306)">
			<stop offset="0" stop-color="#fafafa"/>
			<stop offset="1" stop-color="#cfcfcf"/>
		</linearGradient>
		<linearGradient id="g65" x2="1" gradientUnits="userSpaceOnUse" gradientTransform="matrix(0,-29.41,98.191,0,940.894,77.168)">
			<stop offset="0" stop-color="#fafafa"/>
			<stop offset="1" stop-color="#cfcfcf"/>
		</linearGradient>
		<linearGradient id="g66" x2="1" gradientUnits="userSpaceOnUse" gradientTransform="matrix(0,-25.609,84.671,0,950.664,61.305)">
			<stop offset="0" stop-color="#fafafa"/>
			<stop offset="1" stop-color="#cfcfcf"/>
		</linearGradient>
		<linearGradient id="g67" x2="1" gradientUnits="userSpaceOnUse" gradientTransform="matrix(0,-34.127,52.909,0,-45.391,95.668)">
			<stop offset="0" stop-color="#fafafa"/>
			<stop offset="1" stop-color="#cfcfcf"/>
		</linearGradient>
		<linearGradient id="g68" x2="1" gradientUnits="userSpaceOnUse" gradientTransform="matrix(0,-40.08,84.84,0,-26.825,117.522)">
			<stop offset="0" stop-color="#fafafa"/>
			<stop offset="1" stop-color="#cfcfcf"/>
		</linearGradient>
		<linearGradient id="g69" x2="1" gradientUnits="userSpaceOnUse" gradientTransform="matrix(0,-34.127,128.018,0,35.714,95.668)">
			<stop offset="0" stop-color="#fafafa"/>
			<stop offset="1" stop-color="#cfcfcf"/>
		</linearGradient>
		<linearGradient id="g70" x2="1" gradientUnits="userSpaceOnUse" gradientTransform="matrix(0,-40.08,138.663,0,80.202,117.522)">
			<stop offset="0" stop-color="#fafafa"/>
			<stop offset="1" stop-color="#cfcfcf"/>
		</linearGradient>
		<linearGradient id="g71" x2="1" gradientUnits="userSpaceOnUse" gradientTransform="matrix(0,-34.127,128.018,0,164.755,95.668)">
			<stop offset="0" stop-color="#fafafa"/>
			<stop offset="1" stop-color="#cfcfcf"/>
		</linearGradient>
		<linearGradient id="g72" x2="1" gradientUnits="userSpaceOnUse" gradientTransform="matrix(0,-40.08,138.663,0,219.974,117.522)">
			<stop offset="0" stop-color="#fafafa"/>
			<stop offset="1" stop-color="#cfcfcf"/>
		</linearGradient>
		<linearGradient id="g73" x2="1" gradientUnits="userSpaceOnUse" gradientTransform="matrix(0,-34.127,128.018,0,293.797,95.668)">
			<stop offset="0" stop-color="#fafafa"/>
			<stop offset="1" stop-color="#cfcfcf"/>
		</linearGradient>
		<linearGradient id="g74" x2="1" gradientUnits="userSpaceOnUse" gradientTransform="matrix(0,-40.08,138.663,0,359.746,117.522)">
			<stop offset="0" stop-color="#fafafa"/>
			<stop offset="1" stop-color="#cfcfcf"/>
		</linearGradient>
		<linearGradient id="g75" x2="1" gradientUnits="userSpaceOnUse" gradientTransform="matrix(0,-34.127,128.018,0,422.838,95.668)">
			<stop offset="0" stop-color="#fafafa"/>
			<stop offset="1" stop-color="#cfcfcf"/>
		</linearGradient>
		<linearGradient id="g76" x2="1" gradientUnits="userSpaceOnUse" gradientTransform="matrix(0,-40.08,138.663,0,499.519,117.522)">
			<stop offset="0" stop-color="#fafafa"/>
			<stop offset="1" stop-color="#cfcfcf"/>
		</linearGradient>
		<linearGradient id="g77" x2="1" gradientUnits="userSpaceOnUse" gradientTransform="matrix(0,-34.127,128.018,0,551.88,95.668)">
			<stop offset="0" stop-color="#fafafa"/>
			<stop offset="1" stop-color="#cfcfcf"/>
		</linearGradient>
		<linearGradient id="g78" x2="1" gradientUnits="userSpaceOnUse" gradientTransform="matrix(0,-40.08,138.663,0,639.291,117.522)">
			<stop offset="0" stop-color="#fafafa"/>
			<stop offset="1" stop-color="#cfcfcf"/>
		</linearGradient>
		<linearGradient id="g79" x2="1" gradientUnits="userSpaceOnUse" gradientTransform="matrix(0,-34.127,128.018,0,680.921,95.668)">
			<stop offset="0" stop-color="#fafafa"/>
			<stop offset="1" stop-color="#cfcfcf"/>
		</linearGradient>
		<linearGradient id="g80" x2="1" gradientUnits="userSpaceOnUse" gradientTransform="matrix(0,-40.08,138.663,0,779.063,117.522)">
			<stop offset="0" stop-color="#fafafa"/>
			<stop offset="1" stop-color="#cfcfcf"/>
		</linearGradient>
		<linearGradient id="g81" x2="1" gradientUnits="userSpaceOnUse" gradientTransform="matrix(0,-34.127,128.018,0,809.963,95.668)">
			<stop offset="0" stop-color="#fafafa"/>
			<stop offset="1" stop-color="#cfcfcf"/>
		</linearGradient>
		<linearGradient id="g82" x2="1" gradientUnits="userSpaceOnUse" gradientTransform="matrix(0,-40.08,134.124,0,916.349,117.522)">
			<stop offset="0" stop-color="#fafafa"/>
			<stop offset="1" stop-color="#cfcfcf"/>
		</linearGradient>
		<linearGradient id="g83" x2="1" gradientUnits="userSpaceOnUse" gradientTransform="matrix(0,-34.127,112.433,0,929.417,95.668)">
			<stop offset="0" stop-color="#fafafa"/>
			<stop offset="1" stop-color="#cfcfcf"/>
		</linearGradient>
		<linearGradient id="g84" x2="1" gradientUnits="userSpaceOnUse" gradientTransform="matrix(0,-57.841,67.075,0,-53.154,175.748)">
			<stop offset="0" stop-color="#fafafa"/>
			<stop offset="1" stop-color="#cfcfcf"/>
		</linearGradient>
		<linearGradient id="g85" x2="1" gradientUnits="userSpaceOnUse" gradientTransform="matrix(0,-47.743,117.041,0,-4.948,143.733)">
			<stop offset="0" stop-color="#fafafa"/>
			<stop offset="1" stop-color="#cfcfcf"/>
		</linearGradient>
		<linearGradient id="g86" x2="1" gradientUnits="userSpaceOnUse" gradientTransform="matrix(0,-57.842,166.325,0,27.108,175.749)">
			<stop offset="0" stop-color="#fafafa"/>
			<stop offset="1" stop-color="#cfcfcf"/>
		</linearGradient>
		<linearGradient id="g87" x2="1" gradientUnits="userSpaceOnUse" gradientTransform="matrix(0,-47.743,151.24,0,132.485,143.733)">
			<stop offset="0" stop-color="#fafafa"/>
			<stop offset="1" stop-color="#cfcfcf"/>
		</linearGradient>
		<linearGradient id="g88" x2="1" gradientUnits="userSpaceOnUse" gradientTransform="matrix(0,-57.842,166.325,0,194.763,175.749)">
			<stop offset="0" stop-color="#fafafa"/>
			<stop offset="1" stop-color="#cfcfcf"/>
		</linearGradient>
		<linearGradient id="g89" x2="1" gradientUnits="userSpaceOnUse" gradientTransform="matrix(0,-47.743,151.24,0,284.934,143.733)">
			<stop offset="0" stop-color="#fafafa"/>
			<stop offset="1" stop-color="#cfcfcf"/>
		</linearGradient>
		<linearGradient id="g90" x2="1" gradientUnits="userSpaceOnUse" gradientTransform="matrix(0,-57.842,166.325,0,362.418,175.749)">
			<stop offset="0" stop-color="#fafafa"/>
			<stop offset="1" stop-color="#cfcfcf"/>
		</linearGradient>
		<linearGradient id="g91" x2="1" gradientUnits="userSpaceOnUse" gradientTransform="matrix(0,-47.743,151.24,0,437.383,143.733)">
			<stop offset="0" stop-color="#fafafa"/>
			<stop offset="1" stop-color="#cfcfcf"/>
		</linearGradient>
		<linearGradient id="g92" x2="1" gradientUnits="userSpaceOnUse" gradientTransform="matrix(0,-57.842,166.325,0,530.073,175.749)">
			<stop offset="0" stop-color="#fafafa"/>
			<stop offset="1" stop-color="#cfcfcf"/>
		</linearGradient>
		<linearGradient id="g93" x2="1" gradientUnits="userSpaceOnUse" gradientTransform="matrix(0,-47.743,151.24,0,589.832,143.733)">
			<stop offset="0" stop-color="#fafafa"/>
			<stop offset="1" stop-color="#cfcfcf"/>
		</linearGradient>
		<linearGradient id="g94" x2="1" gradientUnits="userSpaceOnUse" gradientTransform="matrix(0,-57.842,166.325,0,697.728,175.749)">
			<stop offset="0" stop-color="#fafafa"/>
			<stop offset="1" stop-color="#cfcfcf"/>
		</linearGradient>
		<linearGradient id="g95" x2="1" gradientUnits="userSpaceOnUse" gradientTransform="matrix(0,-47.743,151.24,0,742.281,143.733)">
			<stop offset="0" stop-color="#fafafa"/>
			<stop offset="1" stop-color="#cfcfcf"/>
		</linearGradient>
		<linearGradient id="g96" x2="1" gradientUnits="userSpaceOnUse" gradientTransform="matrix(0,-57.842,166.325,0,865.383,175.749)">
			<stop offset="0" stop-color="#fafafa"/>
			<stop offset="1" stop-color="#cfcfcf"/>
		</linearGradient>
		<linearGradient id="g97" x2="1" gradientUnits="userSpaceOnUse" gradientTransform="matrix(0,-47.743,151.24,0,894.73,143.733)">
			<stop offset="0" stop-color="#fafafa"/>
			<stop offset="1" stop-color="#cfcfcf"/>
		</linearGradient>
		<linearGradient id="g98" x2="1" gradientUnits="userSpaceOnUse" gradientTransform="matrix(0,-57.842,54.897,0,957.661,175.749)">
			<stop offset="0" stop-color="#fafafa"/>
			<stop offset="1" stop-color="#cfcfcf"/>
		</linearGradient>
		<linearGradient id="g99" x2="1" gradientUnits="userSpaceOnUse" gradientTransform="matrix(0,-47.743,30.929,0,970.647,143.733)">
			<stop offset="0" stop-color="#fafafa"/>
			<stop offset="1" stop-color="#cfcfcf"/>
		</linearGradient>
		<linearGradient id="g100" x2="1" gradientUnits="userSpaceOnUse" gradientTransform="matrix(0,-71.537,87.212,0,-44.493,215.738)">
			<stop offset="0" stop-color="#fafafa"/>
			<stop offset="1" stop-color="#cfcfcf"/>
		</linearGradient>
		<linearGradient id="g101" x2="1" gradientUnits="userSpaceOnUse" gradientTransform="matrix(0,-90.774,138.875,0,-18.905,267.105)">
			<stop offset="0" stop-color="#fafafa"/>
			<stop offset="1" stop-color="#cfcfcf"/>
		</linearGradient>
		<linearGradient id="g102" x2="1" gradientUnits="userSpaceOnUse" gradientTransform="matrix(0,-71.538,184.753,0,83.893,215.738)">
			<stop offset="0" stop-color="#fafafa"/>
			<stop offset="1" stop-color="#cfcfcf"/>
		</linearGradient>
		<linearGradient id="g103" x2="1" gradientUnits="userSpaceOnUse" gradientTransform="matrix(0,-90.775,207.774,0,153.578,267.105)">
			<stop offset="0" stop-color="#fafafa"/>
			<stop offset="1" stop-color="#cfcfcf"/>
		</linearGradient>
		<linearGradient id="g104" x2="1" gradientUnits="userSpaceOnUse" gradientTransform="matrix(0,-71.538,184.753,0,270.124,215.738)">
			<stop offset="0" stop-color="#fafafa"/>
			<stop offset="1" stop-color="#cfcfcf"/>
		</linearGradient>
		<linearGradient id="g105" x2="1" gradientUnits="userSpaceOnUse" gradientTransform="matrix(0,-90.775,207.774,0,363.013,267.105)">
			<stop offset="0" stop-color="#fafafa"/>
			<stop offset="1" stop-color="#cfcfcf"/>
		</linearGradient>
		<linearGradient id="g106" x2="1" gradientUnits="userSpaceOnUse" gradientTransform="matrix(0,-71.538,184.753,0,456.354,215.738)">
			<stop offset="0" stop-color="#fafafa"/>
			<stop offset="1" stop-color="#cfcfcf"/>
		</linearGradient>
		<linearGradient id="g107" x2="1" gradientUnits="userSpaceOnUse" gradientTransform="matrix(0,-90.775,207.774,0,572.448,267.105)">
			<stop offset="0" stop-color="#fafafa"/>
			<stop offset="1" stop-color="#cfcfcf"/>
		</linearGradient>
		<linearGradient id="g108" x2="1" gradientUnits="userSpaceOnUse" gradientTransform="matrix(0,-71.538,184.753,0,642.585,215.738)">
			<stop offset="0" stop-color="#fafafa"/>
			<stop offset="1" stop-color="#cfcfcf"/>
		</linearGradient>
		<linearGradient id="g109" x2="1" gradientUnits="userSpaceOnUse" gradientTransform="matrix(0,-90.775,207.774,0,781.884,267.105)">
			<stop offset="0" stop-color="#fafafa"/>
			<stop offset="1" stop-color="#cfcfcf"/>
		</linearGradient>
		<linearGradient id="g110" x2="1" gradientUnits="userSpaceOnUse" gradientTransform="matrix(0,-71.538,184.753,0,828.816,215.738)">
			<stop offset="0" stop-color="#fafafa"/>
			<stop offset="1" stop-color="#cfcfcf"/>
		</linearGradient>
		<linearGradient id="g111" x2="1" gradientUnits="userSpaceOnUse" gradientTransform="matrix(0,-90.774,123.427,0,925.733,267.105)">
			<stop offset="0" stop-color="#fafafa"/>
			<stop offset="1" stop-color="#cfcfcf"/>
		</linearGradient>
		<linearGradient id="g112" x2="1" gradientUnits="userSpaceOnUse" gradientTransform="matrix(0,-71.538,87.773,0,944.972,215.738)">
			<stop offset="0" stop-color="#fafafa"/>
			<stop offset="1" stop-color="#cfcfcf"/>
		</linearGradient>
		<linearGradient id="g113" x2="1" gradientUnits="userSpaceOnUse" gradientTransform="matrix(0,-163.024,117.795,0,-70.632,431.116)">
			<stop offset="0" stop-color="#fafafa"/>
			<stop offset="1" stop-color="#cfcfcf"/>
		</linearGradient>
		<linearGradient id="g114" x2="1" gradientUnits="userSpaceOnUse" gradientTransform="matrix(0,-119.027,203.7,0,13.49,335.509)">
			<stop offset="0" stop-color="#fafafa"/>
			<stop offset="1" stop-color="#cfcfcf"/>
		</linearGradient>
		<linearGradient id="g115" x2="1" gradientUnits="userSpaceOnUse" gradientTransform="matrix(0,-163.024,276.737,0,73.027,431.116)">
			<stop offset="0" stop-color="#fafafa"/>
			<stop offset="1" stop-color="#cfcfcf"/>
		</linearGradient>
		<linearGradient id="g116" x2="1" gradientUnits="userSpaceOnUse" gradientTransform="matrix(0,-119.027,237.347,0,240.747,335.509)">
			<stop offset="0" stop-color="#fafafa"/>
			<stop offset="1" stop-color="#cfcfcf"/>
		</linearGradient>
		<linearGradient id="g117" x2="1" gradientUnits="userSpaceOnUse" gradientTransform="matrix(0,-163.024,276.737,0,351.977,431.116)">
			<stop offset="0" stop-color="#fafafa"/>
			<stop offset="1" stop-color="#cfcfcf"/>
		</linearGradient>
		<linearGradient id="g118" x2="1" gradientUnits="userSpaceOnUse" gradientTransform="matrix(0,-119.027,237.348,0,479.992,335.509)">
			<stop offset="0" stop-color="#fafafa"/>
			<stop offset="1" stop-color="#cfcfcf"/>
		</linearGradient>
		<linearGradient id="g119" x2="1" gradientUnits="userSpaceOnUse" gradientTransform="matrix(0,-163.024,276.737,0,630.928,431.116)">
			<stop offset="0" stop-color="#fafafa"/>
			<stop offset="1" stop-color="#cfcfcf"/>
		</linearGradient>
		<linearGradient id="g120" x2="1" gradientUnits="userSpaceOnUse" gradientTransform="matrix(0,-119.027,237.347,0,719.238,335.509)">
			<stop offset="0" stop-color="#fafafa"/>
			<stop offset="1" stop-color="#cfcfcf"/>
		</linearGradient>
		<linearGradient id="g121" x2="1" gradientUnits="userSpaceOnUse" gradientTransform="matrix(0,-163.023,213.742,0,854.605,431.116)">
			<stop offset="0" stop-color="#fafafa"/>
			<stop offset="1" stop-color="#cfcfcf"/>
		</linearGradient>
		<linearGradient id="g122" x2="1" gradientUnits="userSpaceOnUse" gradientTransform="matrix(0,-119.027,164.272,0,897.691,335.509)">
			<stop offset="0" stop-color="#fafafa"/>
			<stop offset="1" stop-color="#cfcfcf"/>
		</linearGradient>
		<linearGradient id="g123" x2="1" gradientUnits="userSpaceOnUse" gradientTransform="matrix(0,-237.298,190.705,0,-90.837,574.186)">
			<stop offset="0" stop-color="#fafafa"/>
			<stop offset="1" stop-color="#cfcfcf"/>
		</linearGradient>
		<linearGradient id="g124" x2="1" gradientUnits="userSpaceOnUse" gradientTransform="matrix(0,-378.551,297.095,0,-141.532,811.75)">
			<stop offset="0" stop-color="#fafafa"/>
			<stop offset="1" stop-color="#cfcfcf"/>
		</linearGradient>
		<linearGradient id="g125" x2="1" gradientUnits="userSpaceOnUse" gradientTransform="matrix(0,-237.297,331.803,0,161.495,574.186)">
			<stop offset="0" stop-color="#fafafa"/>
			<stop offset="1" stop-color="#cfcfcf"/>
		</linearGradient>
		<linearGradient id="g126" x2="1" gradientUnits="userSpaceOnUse" gradientTransform="matrix(0,-378.551,414.226,0,260.67,811.751)">
			<stop offset="0" stop-color="#fafafa"/>
			<stop offset="1" stop-color="#cfcfcf"/>
		</linearGradient>
		<linearGradient id="g127" x2="1" gradientUnits="userSpaceOnUse" gradientTransform="matrix(0,-237.297,331.803,0,495.951,574.186)">
			<stop offset="0" stop-color="#fafafa"/>
			<stop offset="1" stop-color="#cfcfcf"/>
		</linearGradient>
		<linearGradient id="g128" x2="1" gradientUnits="userSpaceOnUse" gradientTransform="matrix(0,-378.551,364.369,0,630.06,811.75)">
			<stop offset="0" stop-color="#fafafa"/>
			<stop offset="1" stop-color="#cfcfcf"/>
		</linearGradient>
		<linearGradient id="g129" x2="1" gradientUnits="userSpaceOnUse" gradientTransform="matrix(0,-237.298,277.298,0,781.006,574.186)">
			<stop offset="0" stop-color="#fafafa"/>
			<stop offset="1" stop-color="#cfcfcf"/>
		</linearGradient>
		<linearGradient id="g130" x2="1" gradientUnits="userSpaceOnUse" gradientTransform="matrix(0,-577.187,844.315,0,227.823,589.929)">
			<stop offset="0" stop-color="#000000"/>
			<stop offset="1" stop-color="#fbfbfb"/>
		</linearGradient>
	</defs>
	<style>
		.s0 { fill: #ededed } 
		.s1 { fill: url(#g1) } 
		.s2 { fill: url(#g2) } 
		.s3 { fill: url(#g3) } 
		.s4 { fill: url(#g4) } 
		.s5 { fill: url(#g5) } 
		.s6 { fill: url(#g6) } 
		.s7 { fill: url(#g7) } 
		.s8 { fill: url(#g8) } 
		.s9 { fill: url(#g9) } 
		.s10 { fill: url(#g10) } 
		.s11 { fill: url(#g11) } 
		.s12 { fill: url(#g12) } 
		.s13 { fill: url(#g13) } 
		.s14 { fill: url(#g14) } 
		.s15 { fill: url(#g15) } 
		.s16 { fill: url(#g16) } 
		.s17 { fill: url(#g17) } 
		.s18 { fill: url(#g18) } 
		.s19 { fill: url(#g19) } 
		.s20 { fill: url(#g20) } 
		.s21 { fill: url(#g21) } 
		.s22 { fill: url(#g22) } 
		.s23 { fill: url(#g23) } 
		.s24 { fill: url(#g24) } 
		.s25 { fill: url(#g25) } 
		.s26 { fill: url(#g26) } 
		.s27 { fill: url(#g27) } 
		.s28 { fill: url(#g28) } 
		.s29 { fill: url(#g29) } 
		.s30 { fill: url(#g30) } 
		.s31 { fill: url(#g31) } 
		.s32 { fill: url(#g32) } 
		.s33 { fill: url(#g33) } 
		.s34 { fill: url(#g34) } 
		.s35 { fill: url(#g35) } 
		.s36 { fill: url(#g36) } 
		.s37 { fill: url(#g37) } 
		.s38 { fill: url(#g38) } 
		.s39 { fill: url(#g39) } 
		.s40 { fill: url(#g40) } 
		.s41 { fill: url(#g41) } 
		.s42 { fill: url(#g42) } 
		.s43 { fill: url(#g43) } 
		.s44 { fill: url(#g44) } 
		.s45 { fill: url(#g45) } 
		.s46 { fill: url(#g46) } 
		.s47 { fill: url(#g47) } 
		.s48 { fill: url(#g48) } 
		.s49 { fill: url(#g49) } 
		.s50 { fill: url(#g50) } 
		.s51 { fill: url(#g51) } 
		.s52 { fill: url(#g52) } 
		.s53 { fill: url(#g53) } 
		.s54 { fill: url(#g54) } 
		.s55 { fill: url(#g55) } 
		.s56 { fill: url(#g56) } 
		.s57 { fill: url(#g57) } 
		.s58 { fill: url(#g58) } 
		.s59 { fill: url(#g59) } 
		.s60 { fill: url(#g60) } 
		.s61 { fill: url(#g61) } 
		.s62 { fill: url(#g62) } 
		.s63 { fill: url(#g63) } 
		.s64 { fill: url(#g64) } 
		.s65 { fill: url(#g65) } 
		.s66 { fill: url(#g66) } 
		.s67 { fill: url(#g67) } 
		.s68 { fill: url(#g68) } 
		.s69 { fill: url(#g69) } 
		.s70 { fill: url(#g70) } 
		.s71 { fill: url(#g71) } 
		.s72 { fill: url(#g72) } 
		.s73 { fill: url(#g73) } 
		.s74 { fill: url(#g74) } 
		.s75 { fill: url(#g75) } 
		.s76 { fill: url(#g76) } 
		.s77 { fill: url(#g77) } 
		.s78 { fill: url(#g78) } 
		.s79 { fill: url(#g79) } 
		.s80 { fill: url(#g80) } 
		.s81 { fill: url(#g81) } 
		.s82 { fill: url(#g82) } 
		.s83 { fill: url(#g83) } 
		.s84 { fill: url(#g84) } 
		.s85 { fill: url(#g85) } 
		.s86 { fill: url(#g86) } 
		.s87 { fill: url(#g87) } 
		.s88 { fill: url(#g88) } 
		.s89 { fill: url(#g89) } 
		.s90 { fill: url(#g90) } 
		.s91 { fill: url(#g91) } 
		.s92 { fill: url(#g92) } 
		.s93 { fill: url(#g93) } 
		.s94 { fill: url(#g94) } 
		.s95 { fill: url(#g95) } 
		.s96 { fill: url(#g96) } 
		.s97 { fill: url(#g97) } 
		.s98 { fill: url(#g98) } 
		.s99 { fill: url(#g99) } 
		.s100 { fill: url(#g100) } 
		.s101 { fill: url(#g101) } 
		.s102 { fill: url(#g102) } 
		.s103 { fill: url(#g103) } 
		.s104 { fill: url(#g104) } 
		.s105 { fill: url(#g105) } 
		.s106 { fill: url(#g106) } 
		.s107 { fill: url(#g107) } 
		.s108 { fill: url(#g108) } 
		.s109 { fill: url(#g109) } 
		.s110 { fill: url(#g110) } 
		.s111 { fill: url(#g111) } 
		.s112 { fill: url(#g112) } 
		.s113 { fill: url(#g113) } 
		.s114 { fill: url(#g114) } 
		.s115 { fill: url(#g115) } 
		.s116 { fill: url(#g116) } 
		.s117 { fill: url(#g117) } 
		.s118 { fill: url(#g118) } 
		.s119 { fill: url(#g119) } 
		.s120 { fill: url(#g120) } 
		.s121 { fill: url(#g121) } 
		.s122 { fill: url(#g122) } 
		.s123 { fill: url(#g123) } 
		.s124 { fill: url(#g124) } 
		.s125 { fill: url(#g125) } 
		.s126 { fill: url(#g126) } 
		.s127 { fill: url(#g127) } 
		.s128 { fill: url(#g128) } 
		.s129 { fill: url(#g129) } 
		.s130 { mix-blend-mode: screen;fill: url(#g130) } 
	</style>
	<g id="_Artboards_">
	</g>
	<g id="Layer 1">
		<g id="&lt;Group&gt;">
			<path id="&lt;Path&gt;" class="s0" d="m864 0v576h-864v-576z"/>
			<g id="&lt;Clip Group&gt;" clip-path="url(#cp1)">
				<g id="&lt;Group&gt;">
					<path id="&lt;Path&gt;" class="s1" d="m-54.1 14l53.4-6.9-25.4-7.7-28 3.4z"/>
					<path id="&lt;Path&gt;" class="s2" d="m-0.7 7.1l-53.4 6.9v5.7l14.5 5.3 67.2-9.5z"/>
					<path id="&lt;Path&gt;" class="s3" d="m57.9-0.6l-58.6 7.7 28.3 8.4 60.1-8.4z"/>
					<path id="&lt;Path&gt;" class="s4" d="m87.7 7.1l-60.1 8.4 31.5 9.5 61.7-9.5z"/>
					<path id="&lt;Path&gt;" class="s5" d="m141.8-0.6l-54.1 7.7 33.1 8.4 55.2-8.4z"/>
					<path id="&lt;Path&gt;" class="s6" d="m176 7.1l-55.2 8.4 37.1 9.5 56.2-9.5z"/>
					<path id="&lt;Path&gt;" class="s7" d="m225.7-0.6l-49.7 7.7 38.1 8.4 50.3-8.4z"/>
					<path id="&lt;Path&gt;" class="s8" d="m264.4 7.1l-50.3 8.4 42.5 9.5 50.7-9.5z"/>
					<path id="&lt;Path&gt;" class="s9" d="m309.7-0.6l-45.3 7.7 42.9 8.4 45.4-8.4z"/>
					<path id="&lt;Path&gt;" class="s10" d="m352.7 7.1l-45.4 8.4 48 9.5 45.3-9.5z"/>
					<path id="&lt;Path&gt;" class="s11" d="m393.6-0.6l-40.9 7.7 47.9 8.4 40.5-8.4z"/>
					<path id="&lt;Path&gt;" class="s12" d="m441.1 7.1l-40.5 8.4 53.4 9.5 39.8-9.5z"/>
					<path id="&lt;Path&gt;" class="s13" d="m477.5-0.6l-36.4 7.7 52.7 8.4 35.6-8.4z"/>
					<path id="&lt;Path&gt;" class="s14" d="m529.4 7.1l-35.6 8.4 59 9.5 34.3-9.5z"/>
					<path id="&lt;Path&gt;" class="s15" d="m561.5-0.6l-32.1 7.7 57.7 8.4 30.7-8.4z"/>
					<path id="&lt;Path&gt;" class="s16" d="m617.8 7.1l-30.7 8.4 64.4 9.5 28.8-9.5z"/>
					<path id="&lt;Path&gt;" class="s17" d="m645.4-0.6l-27.6 7.7 62.5 8.4 25.8-8.4z"/>
					<path id="&lt;Path&gt;" class="s18" d="m706.1 7.1l-25.8 8.4 69.9 9.5 23.4-9.5z"/>
					<path id="&lt;Path&gt;" class="s19" d="m729.3-0.6l-23.2 7.7 67.5 8.4 20.9-8.4z"/>
					<path id="&lt;Path&gt;" class="s20" d="m794.5 7.1l-20.9 8.4 75.3 9.5 17.9-9.5z"/>
					<path id="&lt;Path&gt;" class="s21" d="m813.3-0.6l-18.8 7.7 72.3 8.4 16-8.4z"/>
					<path id="&lt;Path&gt;" class="s22" d="m882.8 7.1l-16 8.4 80.9 9.5 12.4-9.5z"/>
					<path id="&lt;Path&gt;" class="s23" d="m897.2-0.6l-14.4 7.7 77.3 8.4 11.1-8.4z"/>
					<path id="&lt;Path&gt;" class="s24" d="m990 9l-18.8-1.9-11.1 8.4 29.9 3.3z"/>
					<path id="&lt;Path&gt;" class="s25" d="m-54.1 19.7v7.3l14.5-2z"/>
					<path id="&lt;Path&gt;" class="s26" d="m-54.1 42.3l43.9-6.7-29.4-10.6-14.5 2z"/>
					<path id="&lt;Path&gt;" class="s27" d="m27.6 15.5l-67.2 9.5 29.4 10.6 69.4-10.6z"/>
					<path id="&lt;Path&gt;" class="s28" d="m59.1 25l-69.3 10.6 33.2 12.1 71.7-12.1z"/>
					<path id="&lt;Path&gt;" class="s29" d="m120.8 15.5l-61.6 9.5 35.5 10.6 63.2-10.6z"/>
					<path id="&lt;Path&gt;" class="s30" d="m157.9 25l-63.2 10.6 40.2 12.1 64.6-12.1z"/>
					<path id="&lt;Path&gt;" class="s31" d="m214.1 15.5l-56.2 9.5 41.6 10.6 57.1-10.6z"/>
					<path id="&lt;Path&gt;" class="s32" d="m256.6 25l-57.1 10.6 47.2 12.1 57.7-12.1z"/>
					<path id="&lt;Path&gt;" class="s33" d="m307.3 15.5l-50.7 9.5 47.8 10.6 50.9-10.6z"/>
					<path id="&lt;Path&gt;" class="s34" d="m355.3 25l-50.9 10.6 54.2 12.1 50.7-12.1z"/>
					<path id="&lt;Path&gt;" class="s35" d="m400.6 15.5l-45.3 9.5 54 10.6 44.7-10.6z"/>
					<path id="&lt;Path&gt;" class="s36" d="m454 25l-44.7 10.6 61.2 12.1 43.7-12.1z"/>
					<path id="&lt;Path&gt;" class="s37" d="m493.8 15.5l-39.8 9.5 60.2 10.6 38.6-10.6z"/>
					<path id="&lt;Path&gt;" class="s38" d="m552.8 25l-38.6 10.6 68.1 12.1 36.8-12.1z"/>
					<path id="&lt;Path&gt;" class="s39" d="m587.1 15.5l-34.3 9.5 66.3 10.6 32.4-10.6z"/>
					<path id="&lt;Path&gt;" class="s40" d="m651.5 25l-32.4 10.6 75.1 12.1 29.8-12.1z"/>
					<path id="&lt;Path&gt;" class="s41" d="m680.3 15.5l-28.8 9.5 72.5 10.6 26.2-10.6z"/>
					<path id="&lt;Path&gt;" class="s42" d="m750.2 25l-26.2 10.6 82.1 12.1 22.7-12.1z"/>
					<path id="&lt;Path&gt;" class="s43" d="m773.6 15.5l-23.4 9.5 78.6 10.6 20.1-10.6z"/>
					<path id="&lt;Path&gt;" class="s44" d="m848.9 25l-20.1 10.6 89.1 12.1 15.8-12.1z"/>
					<path id="&lt;Path&gt;" class="s45" d="m866.8 15.5l-17.9 9.5 84.8 10.6 14-10.6z"/>
					<path id="&lt;Path&gt;" class="s46" d="m990 29.9l-42.3-4.9-14 10.6 56.3 7.1z"/>
					<path id="&lt;Path&gt;" class="s47" d="m990 18.8l-29.9-3.3-12.4 9.5 42.3 4.9z"/>
					<path id="&lt;Path&gt;" class="s48" d="m-54.1 60.6l77.1-12.9-33.2-12.1-43.9 6.7z"/>
					<path id="&lt;Path&gt;" class="s49" d="m23 47.7l-77.1 12.9v3l29.9 13.7 85.2-15.9z"/>
					<path id="&lt;Path&gt;" class="s50" d="m94.7 35.6l-71.7 12.1 38 13.7 73.9-13.7z"/>
					<path id="&lt;Path&gt;" class="s51" d="m134.9 47.7l-73.9 13.7 43.8 15.9 76-15.9z"/>
					<path id="&lt;Path&gt;" class="s52" d="m199.5 35.6l-64.6 12.1 45.9 13.7 65.9-13.7z"/>
					<path id="&lt;Path&gt;" class="s53" d="m246.7 47.7l-65.9 13.7 53.1 15.9 66.8-15.9z"/>
					<path id="&lt;Path&gt;" class="s54" d="m304.4 35.6l-57.7 12.1 54 13.7 57.9-13.7z"/>
					<path id="&lt;Path&gt;" class="s55" d="m358.6 47.7l-57.9 13.7 62.2 15.9 57.6-15.9z"/>
					<path id="&lt;Path&gt;" class="s56" d="m409.3 35.6l-50.7 12.1 61.9 13.7 50-13.7z"/>
					<path id="&lt;Path&gt;" class="s57" d="m470.5 47.7l-50 13.7 71.4 15.9 48.5-15.9z"/>
					<path id="&lt;Path&gt;" class="s58" d="m514.2 35.6l-43.7 12.1 69.9 13.7 41.9-13.7z"/>
					<path id="&lt;Path&gt;" class="s59" d="m582.3 47.7l-41.9 13.7 80.6 15.9 39.2-15.9z"/>
					<path id="&lt;Path&gt;" class="s60" d="m619.1 35.6l-36.8 12.1 77.9 13.7 34-13.7z"/>
					<path id="&lt;Path&gt;" class="s61" d="m694.2 47.7l-34 13.7 89.8 15.9 30-15.9z"/>
					<path id="&lt;Path&gt;" class="s62" d="m724 35.6l-29.8 12.1 85.8 13.7 26.1-13.7z"/>
					<path id="&lt;Path&gt;" class="s63" d="m806.1 47.7l-26.1 13.7 99.1 15.9 20.8-15.9z"/>
					<path id="&lt;Path&gt;" class="s64" d="m828.8 35.6l-22.7 12.1 93.8 13.7 18-13.7z"/>
					<path id="&lt;Path&gt;" class="s65" d="m990 57.4l-72.1-9.7-18 13.7 90.1 13.2z"/>
					<path id="&lt;Path&gt;" class="s66" d="m990 42.7l-56.3-7.1-15.8 12.1 72.1 9.7z"/>
					<path id="&lt;Path&gt;" class="s67" d="m-54.1 63.6v19.3l29.9-5.6z"/>
					<path id="&lt;Path&gt;" class="s68" d="m-54.1 110.5l70.3-14.7-40.4-18.5-29.9 5.6z"/>
					<path id="&lt;Path&gt;" class="s69" d="m61 61.4l-85.2 15.9 40.4 18.5 88.6-18.5z"/>
					<path id="&lt;Path&gt;" class="s70" d="m104.8 77.3l-88.6 18.5 47.7 21.9 92-21.9z"/>
					<path id="&lt;Path&gt;" class="s71" d="m180.8 61.4l-76 15.9 51.1 18.5 78-18.5z"/>
					<path id="&lt;Path&gt;" class="s72" d="m233.9 77.3l-78 18.5 60.4 21.9 79.4-21.9z"/>
					<path id="&lt;Path&gt;" class="s73" d="m300.7 61.4l-66.8 15.9 61.8 18.5 67.2-18.5z"/>
					<path id="&lt;Path&gt;" class="s74" d="m362.9 77.3l-67.2 18.5 73.1 21.9 66.7-21.9z"/>
					<path id="&lt;Path&gt;" class="s75" d="m420.5 61.4l-57.6 15.9 72.6 18.5 56.4-18.5z"/>
					<path id="&lt;Path&gt;" class="s76" d="m491.9 77.3l-56.4 18.5 85.7 21.9 54-21.9z"/>
					<path id="&lt;Path&gt;" class="s77" d="m540.4 61.4l-48.5 15.9 83.3 18.5 45.8-18.5z"/>
					<path id="&lt;Path&gt;" class="s78" d="m621 77.3l-45.8 18.5 98.5 21.9 41.3-21.9z"/>
					<path id="&lt;Path&gt;" class="s79" d="m660.2 61.4l-39.2 15.9 94 18.5 35-18.5z"/>
					<path id="&lt;Path&gt;" class="s80" d="m750 77.3l-35 18.5 111.1 21.9 28.7-21.9z"/>
					<path id="&lt;Path&gt;" class="s81" d="m780 61.4l-30 15.9 104.8 18.5 24.3-18.5z"/>
					<path id="&lt;Path&gt;" class="s82" d="m990 95.1l-110.9-17.8-24.3 18.5 123.7 21.9 11.5-15.6z"/>
					<path id="&lt;Path&gt;" class="s83" d="m990 74.6l-90.1-13.2-20.8 15.9 110.9 17.8z"/>
					<path id="&lt;Path&gt;" class="s84" d="m-54.1 139.2v6.5l7.5-1.8z"/>
					<path id="&lt;Path&gt;" class="s85" d="m16.2 95.8l-70.3 14.7v28.7l7.5 4.7 110.5-26.2z"/>
					<path id="&lt;Path&gt;" class="s86" d="m63.9 117.7l-110.5 26.2 51.3 32.1 116.4-32.1z"/>
					<path id="&lt;Path&gt;" class="s87" d="m155.9 95.8l-92 21.9 57.2 26.2 95.2-26.2z"/>
					<path id="&lt;Path&gt;" class="s88" d="m216.3 117.7l-95.2 26.2 69.9 32.1 97.7-32.1z"/>
					<path id="&lt;Path&gt;" class="s89" d="m295.7 95.8l-79.4 21.9 72.4 26.2 80.1-26.2z"/>
					<path id="&lt;Path&gt;" class="s90" d="m368.8 117.7l-80.1 26.2 88.5 32.1 79.2-32.1z"/>
					<path id="&lt;Path&gt;" class="s91" d="m435.5 95.8l-66.7 21.9 87.6 26.2 64.8-26.2z"/>
					<path id="&lt;Path&gt;" class="s92" d="m521.2 117.7l-64.8 26.2 107 32.1 60.6-32.1z"/>
					<path id="&lt;Path&gt;" class="s93" d="m575.2 95.8l-54 21.9 102.8 26.2 49.7-26.2z"/>
					<path id="&lt;Path&gt;" class="s94" d="m673.7 117.7l-49.7 26.2 125.7 32.1 42-32.1z"/>
					<path id="&lt;Path&gt;" class="s95" d="m715 95.8l-41.3 21.9 118 26.2 34.4-26.2z"/>
					<path id="&lt;Path&gt;" class="s96" d="m826.1 117.7l-34.4 26.2 144.2 32.1 23.4-32.1z"/>
					<path id="&lt;Path&gt;" class="s97" d="m854.8 95.8l-28.7 21.9 133.2 26.2 19.3-26.2z"/>
					<path id="&lt;Path&gt;" class="s98" d="m990 119.7l-11.5-2-19.2 26.2 30.7 6.1z"/>
					<path id="&lt;Path&gt;" class="s99" d="m990 102.1l-11.4 15.6 11.4 2z"/>
					<path id="&lt;Path&gt;" class="s100" d="m-54.1 192.2l58.8-16.2-51.3-32.1-7.5 1.8z"/>
					<path id="&lt;Path&gt;" class="s101" d="m-54.1 256.4l122.9-40.3-64.1-40.1-58.8 16.2z"/>
					<path id="&lt;Path&gt;" class="s102" d="m121.1 143.9l-116.4 32.1 64.1 40.1 122.2-40.1z"/>
					<path id="&lt;Path&gt;" class="s103" d="m191 176l-122.2 40.1 82.4 51.4 127.1-51.4z"/>
					<path id="&lt;Path&gt;" class="s104" d="m288.7 143.9l-97.7 32.1 87.3 40.1 98.9-40.1z"/>
					<path id="&lt;Path&gt;" class="s105" d="m377.2 176l-98.9 40.1 112.2 51.4 97.2-51.4z"/>
					<path id="&lt;Path&gt;" class="s106" d="m456.4 143.9l-79.2 32.1 110.5 40.1 75.7-40.1z"/>
					<path id="&lt;Path&gt;" class="s107" d="m563.4 176l-75.7 40.1 142 51.4 67.5-51.4z"/>
					<path id="&lt;Path&gt;" class="s108" d="m624 143.9l-60.6 32.1 133.8 40.1 52.5-40.1z"/>
					<path id="&lt;Path&gt;" class="s109" d="m749.7 176l-52.5 40.1 171.7 51.4 37.7-51.4z"/>
					<path id="&lt;Path&gt;" class="s110" d="m791.7 143.9l-42 32.1 156.9 40.1 29.3-40.1z"/>
					<path id="&lt;Path&gt;" class="s111" d="m990 188l-54.1-12-29.3 40.1 83.4 21.2z"/>
					<path id="&lt;Path&gt;" class="s112" d="m990 150l-30.7-6.1-23.4 32.1 54.1 12z"/>
					<path id="&lt;Path&gt;" class="s113" d="m-54.1 300.7v49.9l36.1-14.6z"/>
					<path id="&lt;Path&gt;" class="s114" d="m68.8 216.1l-122.9 40.3v44.3l36.1 35.3 169.2-68.5z"/>
					<path id="&lt;Path&gt;" class="s115" d="m151.2 267.5l-169.2 68.5 97.8 95.8 181.1-95.8z"/>
					<path id="&lt;Path&gt;" class="s116" d="m278.3 216.1l-127.1 51.4 109.7 68.5 129.6-68.5z"/>
					<path id="&lt;Path&gt;" class="s117" d="m390.5 267.5l-129.6 68.5 153.4 95.8 125.6-95.8z"/>
					<path id="&lt;Path&gt;" class="s118" d="m487.7 216.1l-97.2 51.4 149.4 68.5 89.8-68.5z"/>
					<path id="&lt;Path&gt;" class="s119" d="m629.7 267.5l-89.8 68.5 208.8 95.8 70.1-95.8z"/>
					<path id="&lt;Path&gt;" class="s120" d="m697.2 216.1l-67.5 51.4 189.1 68.5 50.1-68.5z"/>
					<path id="&lt;Path&gt;" class="s121" d="m990 303.8l-121.1-36.3-50.1 68.5 171.2 62.1z"/>
					<path id="&lt;Path&gt;" class="s122" d="m990 237.3l-83.4-21.2-37.7 51.4 121.1 36.3z"/>
					<path id="&lt;Path&gt;" class="s123" d="m-54.1 502.7l133.9-70.9-97.8-95.8-36.1 14.6z"/>
					<path id="&lt;Path&gt;" class="s124" d="m-54.1 789.1l280.4-213.9-146.5-143.4-133.9 70.9z"/>
					<path id="&lt;Path&gt;" class="s125" d="m260.9 336l-181.1 95.8 146.5 143.4 188-143.4z"/>
					<path id="&lt;Path&gt;" class="s126" d="m414.3 431.8l-188 143.4 243.2 238.2 174.3-238.2z"/>
					<path id="&lt;Path&gt;" class="s127" d="m539.9 336l-125.6 95.8 229.5 143.4 104.9-143.4z"/>
					<path id="&lt;Path&gt;" class="s128" d="m990 542.5l-241.3-110.7-104.9 143.4 346.2 216.3z"/>
					<path id="&lt;Path&gt;" class="s129" d="m990 398.1l-171.2-62.1-70.1 95.8 241.3 110.7z"/>
				</g>
				<path id="&lt;Path&gt;" class="s130" d="m877.1 593.9h-885v-605h885z"/>
			</g>
		</g>
	</g>
</svg>